<?xml version="1.0" standalone="no"?>
<!DOCTYPE svg PUBLIC "-//W3C//DTD SVG 20010904//EN"
 "http://www.w3.org/TR/2001/REC-SVG-20010904/DTD/svg10.dtd">
<svg version="1.0" xmlns="http://www.w3.org/2000/svg"
 width="512.000000pt" height="512.000000pt" viewBox="0 0 512.000000 512.000000"
 preserveAspectRatio="xMidYMid meet">
<metadata>
Created by potrace 1.11, written by Peter Selinger 2001-2013
</metadata>
<g transform="translate(0.000000,512.000000) scale(0.100000,-0.100000)"
fill="#000000" stroke="none">
<path d="M3059 4037 c-1 -6 -1 -16 0 -21 5 -27 -33 -120 -60 -146 -61 -58 -70
-59 -679 -60 l-476 0 3 -232 c1 -128 4 -401 6 -606 2 -205 6 -374 8 -376 2 -2
37 -29 77 -59 l73 -55 93 44 c213 101 433 112 567 28 141 -88 212 -274 210
-549 -1 -107 -6 -150 -28 -230 -43 -152 -154 -269 -281 -296 -116 -24 -260 11
-336 81 l-40 37 16 34 c59 124 12 282 -98 334 -46 22 -146 23 -195 2 -48 -20
-101 -72 -130 -127 -19 -37 -23 -60 -23 -130 0 -76 3 -92 33 -152 87 -175 304
-305 566 -337 66 -9 251 -7 305 3 14 2 43 7 65 11 62 10 208 62 272 96 180 96
316 248 382 424 13 33 25 68 27 78 2 10 5 26 8 35 16 54 23 224 12 312 -21
165 -97 335 -198 440 -220 230 -578 311 -963 218 -49 -12 -104 -27 -122 -34
l-31 -14 1 323 2 322 30 2 c27 1 642 12 962 17 73 1 135 5 138 8 3 3 8 43 10
89 3 46 7 134 10 194 3 61 8 153 10 206 l5 95 -115 2 c-85 1 -115 -1 -116 -11z"/>
<path d="M848 2875 c-2 -2 -28 -6 -58 -9 -179 -21 -366 -132 -487 -291 -172
-226 -231 -552 -146 -818 101 -320 372 -522 713 -532 137 -4 223 12 328 61
229 105 385 301 459 576 27 100 24 339 -5 441 -86 301 -333 521 -632 563 -40
5 -169 12 -172 9z m156 -133 c59 -17 120 -57 173 -116 48 -52 111 -166 128
-231 5 -16 10 -34 11 -40 36 -113 56 -328 43 -459 -12 -115 -17 -142 -34 -203
-73 -250 -239 -372 -463 -342 -193 27 -349 219 -401 495 -20 103 -23 143 -23
254 0 289 94 510 257 606 81 47 213 62 309 36z"/>
<path d="M4287 2874 c-1 -1 -31 -4 -67 -8 -330 -32 -616 -326 -668 -686 -9
-60 -9 -221 0 -290 10 -77 40 -173 78 -254 34 -71 116 -187 153 -217 12 -9 38
-31 57 -48 46 -40 159 -96 246 -122 92 -27 273 -33 369 -12 192 41 371 149
484 292 l35 44 -32 28 c-40 36 -45 36 -74 1 -138 -164 -442 -261 -636 -203
-116 36 -206 110 -266 222 -34 65 -72 182 -81 252 -4 29 -8 54 -10 57 -2 3 -7
58 -11 123 l-7 117 94 0 c109 1 944 17 990 19 27 2 12 153 -27 271 -36 106
-78 176 -150 246 -73 71 -152 115 -254 143 -60 16 -213 34 -223 25z m168 -149
c94 -45 161 -141 191 -275 2 -8 7 -45 10 -82 l6 -68 -396 0 -397 0 7 38 c4 20
17 67 29 104 69 204 206 305 418 307 64 1 88 -4 132 -24z"/>
</g>
</svg>
